ply
format ascii 1.0
comment Created by Blender 2.76 (sub 0) - www.blender.org, source file: 'miami.blend'
element vertex 352
property float x
property float y
property float z
property float nx
property float ny
property float nz
property float s
property float t
element face 298
property list uchar uint vertex_indices
end_header
0.263193 -6.927114 0.247219 0.706717 -0.001160 0.707480 0.490382 0.997840
-0.729050 -6.927114 0.247219 -0.707785 0.002136 0.706412 0.521936 0.997840
-0.729050 -6.973897 0.247219 -0.577349 -0.577349 0.577349 0.521936 1.000000
0.263193 -6.973897 0.247219 0.577349 -0.577349 0.577349 0.490382 1.000000
-0.729050 -6.973897 0.200437 -0.577349 -0.577349 -0.577349 0.521936 1.000000
0.263193 -6.973897 0.200437 0.577349 -0.577349 -0.577349 0.490382 1.000000
-0.729050 -6.927114 0.200437 -0.707785 0.002136 -0.706412 0.521936 0.997840
0.263193 -6.927114 0.200437 0.706717 -0.001160 -0.707480 0.490382 0.997840
-0.741175 -1.517623 0.200521 -0.696585 -0.433699 -0.571490 0.522322 0.748124
0.236017 -1.689781 0.200197 0.491134 -0.655171 -0.573992 0.491246 0.756072
0.236034 -1.689767 0.246979 0.491592 -0.654866 0.573962 0.491246 0.756071
-0.741159 -1.517609 0.247303 -0.696188 -0.433393 0.572222 0.522321 0.748124
-0.696828 -1.659436 0.247220 -0.671133 -0.081668 0.736808 0.520912 0.754671
-0.696828 -1.659436 0.200438 -0.671133 -0.081668 -0.736808 0.520912 0.754671
0.281426 -1.493427 0.200438 0.732139 0.138707 -0.666829 0.489802 0.747007
0.281426 -1.493427 0.247220 0.732139 0.138707 0.666829 0.489802 0.747007
-0.790233 -1.291075 0.247220 -0.414258 -0.375256 0.829188 0.523882 0.737666
-0.790233 -1.291075 0.200438 -0.414258 -0.375256 -0.829188 0.523882 0.737666
-0.069677 -0.608907 0.200438 0.560503 0.535661 -0.631550 0.500968 0.706176
-0.069677 -0.608907 0.247220 0.560503 0.535661 0.631550 0.500968 0.706176
-1.482070 -1.040853 0.247220 -0.139500 -0.658528 0.739464 0.545883 0.726115
-1.482070 -1.040853 0.200438 -0.139500 -0.658528 -0.739464 0.545883 0.726115
-1.255591 -0.074811 0.200438 0.178137 0.721854 -0.668691 0.538681 0.681520
-1.255591 -0.074811 0.247220 0.178137 0.721854 0.668691 0.538681 0.681520
-2.590501 -0.962625 0.247220 0.108402 -0.635304 0.764580 0.581132 0.722504
-2.590501 -0.962625 0.200438 0.108402 -0.635304 -0.764580 0.581132 0.722504
-2.752984 0.016222 0.200438 -0.120334 0.740837 -0.660787 0.586299 0.677318
-2.752984 0.016222 0.247220 -0.120334 0.740837 0.660787 0.586299 0.677318
-3.364403 -1.297580 0.247220 0.302561 -0.628864 0.716208 0.605743 0.737967
-3.364403 -1.297580 0.200438 0.302561 -0.628864 -0.716208 0.605743 0.737967
-3.791723 -0.402068 0.200438 -0.309641 0.650472 -0.693503 0.619332 0.696627
-3.791723 -0.402068 0.247220 -0.309641 0.650472 0.693503 0.619332 0.696627
-4.817411 -2.069615 0.247220 0.192053 -0.727012 0.659169 0.651950 0.773606
-4.817411 -2.069615 0.200438 0.192053 -0.727012 -0.659169 0.651950 0.773606
-5.069952 -1.110038 0.200438 -0.162328 0.620472 -0.767205 0.659981 0.729309
-5.069952 -1.110038 0.247220 -0.162328 0.620472 0.767205 0.659981 0.729309
-6.221698 -2.109169 0.247220 -0.215522 -0.734184 0.643818 0.696608 0.775432
-6.221698 -2.109169 0.200438 -0.215461 -0.734245 -0.643757 0.696608 0.775432
-6.239677 -1.117092 0.200438 0.215613 0.561571 -0.798822 0.697179 0.729635
-6.239677 -1.117092 0.247220 0.215339 0.561541 0.798883 0.697179 0.729635
-7.325684 -1.355278 0.246973 -0.721305 -0.332347 0.607624 0.731716 0.740630
-7.325669 -1.355291 0.200191 -0.721030 -0.332713 -0.607746 0.731715 0.740630
-6.417832 -0.954802 0.200385 0.524583 0.181951 -0.831660 0.702845 0.722143
-6.417846 -0.954788 0.247167 0.524033 0.182257 0.831935 0.702846 0.722143
-7.185215 -0.054293 0.246547 -0.662221 0.421766 0.619282 0.727249 0.680573
-7.185215 -0.054307 0.199765 -0.662008 0.421216 -0.619892 0.727248 0.680574
-6.360287 -0.605710 0.200271 0.448134 -0.338115 -0.827540 0.701015 0.706028
-6.360301 -0.605682 0.247053 0.447584 -0.337230 0.828181 0.701015 0.706027
-6.105110 0.599863 0.246332 -0.228523 0.717856 0.657582 0.692900 0.650376
-6.105110 0.599836 0.199551 -0.228431 0.717093 -0.658437 0.692900 0.650377
-5.823267 -0.351535 0.200187 0.161962 -0.638234 -0.752586 0.683937 0.694295
-5.823267 -0.351508 0.246969 0.161809 -0.637226 0.753471 0.683937 0.694293
-4.524960 0.713940 0.246295 -0.048402 0.706778 0.705771 0.642649 0.645110
-4.524946 0.713899 0.199513 -0.048372 0.705741 -0.706809 0.642649 0.645111
-4.461224 -0.276298 0.200163 0.042726 -0.707419 -0.705466 0.640623 0.690821
-4.461237 -0.276257 0.246945 0.042695 -0.706504 0.706412 0.640623 0.690820
-3.430417 0.784977 0.246272 -0.018250 0.715995 0.697836 0.607842 0.641831
-3.430417 0.784936 0.199490 -0.018250 0.714988 -0.698874 0.607842 0.641832
-3.404176 -0.206949 0.200140 0.019196 -0.698477 -0.715323 0.607008 0.687621
-3.404176 -0.206935 0.246922 0.019166 -0.697653 0.716147 0.607008 0.687619
-2.452133 0.771513 0.246276 0.071444 0.722098 0.688040 0.576732 0.642452
-2.452133 0.771485 0.199494 0.071413 0.721274 -0.688925 0.576732 0.642453
-2.549671 -0.215952 0.200143 -0.067263 -0.683370 -0.726920 0.579834 0.688036
-2.549671 -0.215925 0.246925 -0.067232 -0.682516 0.727744 0.579834 0.688034
-0.755801 0.456499 0.246379 -0.224982 0.205390 0.952452 0.522787 0.656993
-0.755804 0.456485 0.199597 -0.225410 0.204108 -0.952635 0.522787 0.656995
-0.938006 -0.518889 0.200242 -0.174322 -0.668935 -0.722556 0.528581 0.702020
-0.938003 -0.518862 0.247024 -0.174139 -0.668081 0.723411 0.528581 0.702019
0.396068 -0.230130 0.199789 0.731590 0.006256 -0.681661 0.486156 0.688690
-0.494365 -0.667936 0.200284 -0.387188 -0.202826 -0.899411 0.514473 0.708901
-0.494350 -0.667922 0.247066 -0.386578 -0.201941 0.899869 0.514472 0.708900
0.396083 -0.230116 0.246571 0.731956 0.006928 0.681295 0.486156 0.688689
0.064245 2.363288 0.198092 0.685812 0.027650 -0.727226 0.496709 0.568971
0.064264 2.363316 0.244874 0.686239 0.028626 0.726798 0.496708 0.568970
-1.273117 2.264789 0.245196 -0.734489 -0.086917 0.673025 0.539238 0.573519
-1.273117 2.264748 0.198414 -0.734611 -0.087832 -0.672750 0.539238 0.573520
0.147515 4.202692 0.196888 0.720939 -0.033082 -0.692190 0.494061 0.484060
0.147533 4.202719 0.243670 0.721366 -0.032197 0.691794 0.494060 0.484058
-1.193200 4.176149 0.243945 -0.692648 0.029420 0.720664 0.536697 0.485285
-1.193200 4.176108 0.197163 -0.692862 0.028474 -0.720450 0.536697 0.485287
-0.341710 -6.973897 0.247219 -0.577349 -0.577349 0.577349 0.509618 1.000000
0.650533 -6.973897 0.247219 0.577349 -0.577349 0.577349 0.478064 1.000000
0.650533 -6.927115 0.247219 0.707785 0.002136 0.706412 0.478064 0.997840
-0.341710 -6.927114 0.247219 -0.706717 -0.001160 0.707480 0.509618 0.997840
-0.341710 -6.973897 0.200437 -0.577349 -0.577349 -0.577349 0.509618 1.000000
0.650533 -6.973897 0.200437 0.577349 -0.577349 -0.577349 0.478064 1.000000
-0.341710 -6.927114 0.200437 -0.706717 -0.001160 -0.707480 0.509618 0.997840
0.650533 -6.927115 0.200437 0.707785 0.002136 -0.706412 0.478064 0.997840
0.662647 -1.517609 0.247303 0.696188 -0.433393 0.572222 0.477679 0.748124
-0.314546 -1.689767 0.246979 -0.491592 -0.654866 0.573962 0.508755 0.756071
-0.314530 -1.689781 0.200197 -0.491134 -0.655171 -0.573992 0.508754 0.756072
0.662663 -1.517623 0.200521 0.696585 -0.433699 -0.571490 0.477678 0.748124
0.618316 -1.659436 0.200438 0.671133 -0.081668 -0.736808 0.479089 0.754671
0.618316 -1.659436 0.247220 0.671133 -0.081668 0.736808 0.479089 0.754671
-0.359938 -1.493427 0.200438 -0.732139 0.138707 -0.666829 0.510198 0.747007
-0.359938 -1.493427 0.247220 -0.732139 0.138707 0.666829 0.510198 0.747007
0.711721 -1.291075 0.200438 0.414258 -0.375256 -0.829188 0.476118 0.737666
0.711721 -1.291075 0.247220 0.414258 -0.375256 0.829188 0.476118 0.737666
-0.008834 -0.608907 0.200438 -0.560503 0.535661 -0.631550 0.499033 0.706176
-0.008834 -0.608907 0.247220 -0.560503 0.535661 0.631550 0.499033 0.706176
1.403555 -1.040853 0.200438 0.139500 -0.658528 -0.739464 0.454117 0.726115
1.403555 -1.040853 0.247220 0.139500 -0.658528 0.739464 0.454117 0.726115
1.177092 -0.074811 0.200438 -0.178137 0.721854 -0.668691 0.461319 0.681520
1.177092 -0.074811 0.247220 -0.178137 0.721854 0.668691 0.461319 0.681520
2.511985 -0.962625 0.200438 -0.108402 -0.635334 -0.764580 0.418868 0.722504
2.511985 -0.962625 0.247220 -0.108402 -0.635334 0.764580 0.418868 0.722504
2.674467 0.016222 0.200438 0.120334 0.740837 -0.660787 0.413701 0.677318
2.674467 0.016222 0.247220 0.120334 0.740837 0.660787 0.413701 0.677318
3.285900 -1.297580 0.200438 -0.302561 -0.628864 -0.716208 0.394257 0.737967
3.285900 -1.297580 0.247220 -0.302561 -0.628864 0.716208 0.394257 0.737967
3.713221 -0.402068 0.200438 0.309641 0.650472 -0.693503 0.380668 0.696627
3.713221 -0.402068 0.247220 0.309641 0.650472 0.693503 0.380668 0.696627
4.738894 -2.069615 0.200438 -0.192053 -0.727012 -0.659169 0.348050 0.773606
4.738894 -2.069615 0.247220 -0.192053 -0.727012 0.659169 0.348050 0.773606
4.991436 -1.110051 0.200438 0.162328 0.620472 -0.767205 0.340019 0.729309
4.991436 -1.110051 0.247220 0.162328 0.620472 0.767205 0.340019 0.729309
6.143182 -2.109169 0.200438 0.215461 -0.734245 -0.643757 0.303392 0.775432
6.143182 -2.109169 0.247220 0.215522 -0.734184 0.643818 0.303392 0.775432
6.161147 -1.117105 0.200438 -0.215613 0.561602 -0.798791 0.302821 0.729635
6.161147 -1.117105 0.247220 -0.215339 0.561541 0.798914 0.302821 0.729635
7.247153 -1.355291 0.200191 0.721000 -0.332682 -0.607776 0.268285 0.740630
7.247167 -1.355278 0.246973 0.721335 -0.332377 0.607593 0.268284 0.740630
6.339316 -0.954802 0.200385 -0.524674 0.181982 -0.831599 0.297155 0.722143
6.339344 -0.954802 0.247167 -0.523942 0.182257 0.831996 0.297154 0.722143
7.106699 -0.054307 0.199765 0.661977 0.421247 -0.619922 0.272752 0.680574
7.106712 -0.054293 0.246547 0.662252 0.421735 0.619251 0.272751 0.680573
6.281784 -0.605723 0.200271 -0.448164 -0.338145 -0.827509 0.298985 0.706028
6.281798 -0.605696 0.247053 -0.447584 -0.337230 0.828211 0.298985 0.706027
6.026607 0.599836 0.199551 0.228431 0.717063 -0.658467 0.307100 0.650377
6.026607 0.599863 0.246332 0.228523 0.717887 0.657552 0.307100 0.650376
5.744737 -0.351535 0.200187 -0.161962 -0.638264 -0.752556 0.316063 0.694295
5.744751 -0.351508 0.246969 -0.161840 -0.637196 0.753471 0.316063 0.694293
4.446443 0.713899 0.199513 0.048372 0.705741 -0.706778 0.357351 0.645111
4.446443 0.713940 0.246295 0.048402 0.706748 0.705771 0.357351 0.645110
4.382721 -0.276298 0.200163 -0.042726 -0.707450 -0.705435 0.359377 0.690821
4.382721 -0.276257 0.246945 -0.042665 -0.706473 0.706412 0.359377 0.690820
3.351914 0.784936 0.199490 0.018250 0.714988 -0.698874 0.392158 0.641832
3.351914 0.784977 0.246272 0.018250 0.715995 0.697836 0.392158 0.641831
3.325673 -0.206963 0.200140 -0.019196 -0.698538 -0.715293 0.392992 0.687621
3.325673 -0.206935 0.246922 -0.019166 -0.697592 0.716208 0.392992 0.687619
2.373630 0.771485 0.199494 -0.071413 0.721244 -0.688955 0.423268 0.642453
2.373616 0.771513 0.246276 -0.071474 0.722129 0.688009 0.423268 0.642452
2.471155 -0.215952 0.200143 0.067263 -0.683401 -0.726890 0.420166 0.688036
2.471155 -0.215925 0.246925 0.067232 -0.682485 0.727775 0.420166 0.688034
0.677293 0.456471 0.199597 0.225349 0.204108 -0.952635 0.477213 0.656995
0.677290 0.456499 0.246379 0.225013 0.205390 0.952452 0.477213 0.656993
0.859495 -0.518889 0.200242 0.174322 -0.668935 -0.722556 0.471419 0.702020
0.859492 -0.518862 0.247024 0.174139 -0.668081 0.723411 0.471419 0.702019
0.415854 -0.667936 0.200284 0.387188 -0.202826 -0.899411 0.485527 0.708901
-0.474579 -0.230130 0.199789 -0.731620 0.006256 -0.681661 0.513844 0.688690
0.415839 -0.667922 0.247066 0.386578 -0.201941 0.899869 0.485528 0.708900
-0.474595 -0.230116 0.246571 -0.731956 0.006928 0.681295 0.513844 0.688689
-0.142773 2.363316 0.244874 -0.686239 0.028626 0.726798 0.503292 0.568970
-0.142755 2.363288 0.198092 -0.685812 0.027650 -0.727226 0.503291 0.568971
1.194603 2.264789 0.245196 0.734458 -0.086917 0.673025 0.460762 0.573519
1.194606 2.264748 0.198414 0.734611 -0.087832 -0.672750 0.460762 0.573520
-0.226041 4.202719 0.243670 -0.721427 -0.032197 0.691702 0.505940 0.484058
-0.226023 4.202706 0.196888 -0.720878 -0.033082 -0.692251 0.505939 0.484060
1.114697 4.176149 0.243945 0.692618 0.029420 0.720664 0.463303 0.485285
1.114700 4.176108 0.197163 0.692892 0.028474 -0.720450 0.463303 0.485287
7.121974 -0.555026 0.207844 -0.502640 -0.643422 -0.577349 0.272266 0.703688
7.121974 -0.555026 0.231249 -0.502640 -0.643422 0.577349 0.272266 0.703688
7.118378 -0.525765 0.231249 -0.643422 0.502640 0.577319 0.272380 0.702337
7.118378 -0.525765 0.207844 -0.643422 0.502640 -0.577319 0.272380 0.702337
7.785257 -0.443872 0.231249 0.502792 0.643300 0.577319 0.251173 0.698557
7.785257 -0.443872 0.207844 0.502792 0.643300 -0.577319 0.251173 0.698557
7.788839 -0.473146 0.231249 0.643269 -0.502792 0.577349 0.251059 0.699908
7.788839 -0.473146 0.207844 0.643269 -0.502792 -0.577349 0.251059 0.699908
7.490719 -0.685448 0.207844 0.642323 -0.503891 -0.577441 0.260539 0.709709
7.490719 -0.685448 0.231249 0.642323 -0.503891 0.577441 0.260539 0.709709
7.461445 -0.689016 0.231249 -0.504013 -0.642445 0.577227 0.261470 0.709874
7.461445 -0.689016 0.207844 -0.504013 -0.642445 -0.577227 0.261470 0.709874
7.416512 -0.313437 0.231249 -0.642323 0.503891 0.577441 0.262899 0.692536
7.416512 -0.313437 0.207844 -0.642323 0.503891 -0.577441 0.262899 0.692536
7.445786 -0.309868 0.231249 0.503983 0.642445 0.577227 0.261968 0.692371
7.445786 -0.309868 0.207844 0.503983 0.642445 -0.577227 0.261968 0.692371
7.653627 -0.665452 0.207844 0.642323 -0.503891 -0.577441 0.255359 0.708786
7.653627 -0.665452 0.231249 0.642323 -0.503891 0.577441 0.255359 0.708786
7.624353 -0.669020 0.231249 -0.504013 -0.642445 0.577227 0.256290 0.708951
7.624353 -0.669020 0.207844 -0.504013 -0.642445 -0.577227 0.256290 0.708951
7.579420 -0.293426 0.231249 -0.642323 0.503891 0.577441 0.257719 0.691612
7.579420 -0.293426 0.207844 -0.642323 0.503891 -0.577441 0.257719 0.691612
7.608694 -0.289858 0.231249 0.504013 0.642445 0.577227 0.256788 0.691448
7.608694 -0.289858 0.207844 0.504013 0.642445 -0.577227 0.256788 0.691448
7.802975 -0.647116 0.207844 0.642323 -0.503922 -0.577441 0.250609 0.707939
7.802975 -0.647116 0.231249 0.642323 -0.503922 0.577441 0.250609 0.707939
7.773701 -0.650684 0.231249 -0.504013 -0.642445 0.577227 0.251540 0.708104
7.773701 -0.650684 0.207844 -0.504013 -0.642445 -0.577227 0.251540 0.708104
7.728781 -0.275091 0.231249 -0.642323 0.503922 0.577441 0.252969 0.690766
7.728781 -0.275091 0.207844 -0.642323 0.503922 -0.577441 0.252969 0.690766
7.758055 -0.271522 0.231249 0.504013 0.642445 0.577227 0.252038 0.690601
7.758055 -0.271522 0.207844 0.504013 0.642445 -0.577227 0.252038 0.690601
6.664542 0.189259 0.207845 0.196081 -0.792596 -0.577349 0.286813 0.669330
6.664542 0.189259 0.231249 0.196081 -0.792596 0.577349 0.286813 0.669330
6.639289 0.204493 0.231249 -0.792596 -0.196081 0.577319 0.287616 0.668627
6.639289 0.204493 0.207845 -0.792596 -0.196081 -0.577319 0.287616 0.668627
6.986419 0.779747 0.231249 -0.196051 0.792596 0.577349 0.276577 0.642071
6.986419 0.779747 0.207845 -0.196051 0.792596 -0.577349 0.276577 0.642071
7.011671 0.764513 0.231249 0.792596 0.196051 0.577319 0.275774 0.642775
7.011671 0.764513 0.207845 0.792596 0.196051 -0.577319 0.275774 0.642775
6.994749 0.398897 0.207845 0.792901 0.194403 -0.577441 0.276312 0.659653
6.994749 0.398897 0.231249 0.792901 0.194403 0.577441 0.276312 0.659653
6.979488 0.373658 0.231249 0.194433 -0.793085 0.577227 0.276797 0.660817
6.979488 0.373658 0.207845 0.194433 -0.793085 -0.577227 0.276797 0.660817
6.656225 0.570109 0.231249 -0.792932 -0.194311 0.577441 0.287077 0.651749
6.656225 0.570109 0.207845 -0.792932 -0.194311 -0.577441 0.287077 0.651749
6.671486 0.595335 0.231249 -0.194342 0.793085 0.577227 0.286592 0.650584
6.671486 0.595335 0.207845 -0.194342 0.793085 -0.577227 0.286592 0.650584
7.079538 0.539435 0.207845 0.792901 0.194403 -0.577441 0.273615 0.653165
7.079538 0.539435 0.231249 0.792901 0.194403 0.577441 0.273615 0.653165
7.064276 0.514195 0.231249 0.194433 -0.793085 0.577227 0.274101 0.654330
7.064276 0.514195 0.207845 0.194433 -0.793085 -0.577227 0.274101 0.654330
6.741027 0.710632 0.231249 -0.792901 -0.194403 0.577441 0.284381 0.645262
6.741027 0.710632 0.207845 -0.792901 -0.194403 -0.577441 0.284381 0.645262
6.756289 0.735871 0.231249 -0.194433 0.793085 0.577227 0.283895 0.644097
6.756289 0.735871 0.207845 -0.194433 0.793085 -0.577227 0.283895 0.644097
7.157286 0.668265 0.207845 0.792901 0.194403 -0.577441 0.271143 0.647218
7.157286 0.668265 0.231249 0.792901 0.194403 0.577441 0.271143 0.647218
7.142025 0.643026 0.231249 0.194433 -0.793085 0.577227 0.271628 0.648383
7.142025 0.643026 0.207845 0.194433 -0.793085 -0.577227 0.271628 0.648383
6.818762 0.839477 0.231249 -0.792932 -0.194311 0.577441 0.281908 0.639315
6.818762 0.839477 0.207845 -0.792932 -0.194311 -0.577441 0.281908 0.639315
6.834023 0.864701 0.231249 -0.194342 0.793085 0.577227 0.281423 0.638150
6.834023 0.864701 0.207845 -0.194342 0.793085 -0.577227 0.281423 0.638150
6.740204 -1.656019 0.207844 -0.811518 0.089785 -0.577349 0.284407 0.754513
6.740204 -1.656019 0.231249 -0.811518 0.089785 0.577349 0.284407 0.754513
6.763220 -1.637587 0.231249 0.089816 0.811518 0.577319 0.283675 0.753662
6.763220 -1.637587 0.207844 0.089816 0.811518 -0.577319 0.283675 0.753662
7.183143 -2.162089 0.231249 0.811518 -0.089785 0.577349 0.270321 0.777874
7.183143 -2.162089 0.207844 0.811518 -0.089785 -0.577349 0.270321 0.777874
7.160127 -2.180521 0.231249 -0.089785 -0.811518 0.577319 0.271053 0.778725
7.160127 -2.180521 0.207844 -0.089785 -0.811518 -0.577319 0.271053 0.778725
6.822865 -2.038310 0.207844 -0.091464 -0.811243 -0.577441 0.281778 0.772161
6.822865 -2.038310 0.231249 -0.091464 -0.811243 0.577441 0.281778 0.772161
6.804461 -2.015281 0.231249 -0.811426 0.091464 0.577227 0.282363 0.771097
6.804461 -2.015281 0.207844 -0.811426 0.091464 -0.577227 0.282363 0.771097
7.100481 -1.779785 0.231249 0.091586 0.811243 0.577441 0.272950 0.760226
7.100481 -1.779785 0.207844 0.091586 0.811243 -0.577441 0.272950 0.760226
7.118886 -1.802828 0.231249 0.811396 -0.091617 0.577227 0.272364 0.761290
7.118886 -1.802828 0.207844 0.811396 -0.091617 -0.577227 0.272364 0.761290
6.925441 -2.166440 0.207844 -0.091586 -0.811243 -0.577441 0.278516 0.778075
6.925441 -2.166440 0.231249 -0.091586 -0.811243 0.577441 0.278516 0.778075
6.907037 -2.143397 0.231249 -0.811396 0.091586 0.577227 0.279101 0.777012
6.907037 -2.143397 0.207844 -0.811396 0.091586 -0.577227 0.279101 0.777012
7.203057 -1.907915 0.231249 0.091464 0.811243 0.577441 0.269687 0.766141
7.203057 -1.907915 0.207844 0.091464 0.811243 -0.577441 0.269687 0.766141
7.221461 -1.930944 0.231249 0.811426 -0.091464 0.577227 0.269102 0.767204
7.221461 -1.930944 0.207844 0.811426 -0.091464 -0.577227 0.269102 0.767204
7.019480 -2.283907 0.207844 -0.091464 -0.811243 -0.577441 0.275525 0.783498
7.019480 -2.283907 0.231249 -0.091464 -0.811243 0.577441 0.275525 0.783498
7.001076 -2.260878 0.231249 -0.811426 0.091464 0.577227 0.276110 0.782434
7.001076 -2.260878 0.207844 -0.811426 0.091464 -0.577227 0.276110 0.782434
7.297096 -2.025382 0.231249 0.091311 0.811274 0.577471 0.266697 0.771563
7.297096 -2.025382 0.207844 0.091311 0.811274 -0.577471 0.266697 0.771563
7.315514 -2.048411 0.231249 0.811457 -0.091342 0.577197 0.266111 0.772627
7.315514 -2.048411 0.207844 0.811457 -0.091342 -0.577197 0.266111 0.772627
-7.163544 -0.525752 0.207844 0.643422 0.502640 -0.577319 0.726559 0.702337
-7.163544 -0.525752 0.231249 0.643422 0.502640 0.577319 0.726559 0.702337
-7.167140 -0.555026 0.231249 0.502640 -0.643422 0.577349 0.726674 0.703688
-7.167140 -0.555026 0.207844 0.502640 -0.643422 -0.577349 0.726674 0.703688
-7.830423 -0.443859 0.207844 -0.502823 0.643300 -0.577319 0.747767 0.698557
-7.830423 -0.443859 0.231249 -0.502823 0.643300 0.577319 0.747767 0.698557
-7.834005 -0.473133 0.207844 -0.643269 -0.502792 -0.577349 0.747881 0.699908
-7.834005 -0.473133 0.231249 -0.643269 -0.502792 0.577349 0.747881 0.699908
-7.506598 -0.689016 0.207844 0.504013 -0.642445 -0.577227 0.737469 0.709874
-7.506598 -0.689016 0.231249 0.504013 -0.642445 0.577227 0.737469 0.709874
-7.535885 -0.685448 0.231249 -0.642323 -0.503891 0.577441 0.738400 0.709709
-7.535885 -0.685448 0.207844 -0.642323 -0.503891 -0.577441 0.738400 0.709709
-7.461678 -0.313437 0.207844 0.642323 0.503891 -0.577471 0.736040 0.692536
-7.461678 -0.313437 0.231249 0.642323 0.503891 0.577471 0.736040 0.692536
-7.490938 -0.309868 0.207844 -0.503983 0.642476 -0.577227 0.736971 0.692371
-7.490938 -0.309868 0.231249 -0.503983 0.642476 0.577227 0.736971 0.692371
-7.669519 -0.669020 0.207844 0.504013 -0.642445 -0.577227 0.742650 0.708951
-7.669519 -0.669020 0.231249 0.504013 -0.642445 0.577227 0.742650 0.708951
-7.698793 -0.665452 0.231249 -0.642323 -0.503891 0.577441 0.743581 0.708786
-7.698793 -0.665452 0.207844 -0.642323 -0.503891 -0.577441 0.743581 0.708786
-7.624586 -0.293426 0.207844 0.642323 0.503891 -0.577441 0.741221 0.691612
-7.624586 -0.293426 0.231249 0.642323 0.503891 0.577441 0.741221 0.691612
-7.653860 -0.289858 0.207844 -0.504013 0.642445 -0.577227 0.742152 0.691448
-7.653860 -0.289858 0.231249 -0.504013 0.642445 0.577227 0.742152 0.691448
-7.818867 -0.650684 0.207844 0.504013 -0.642445 -0.577227 0.747400 0.708104
-7.818867 -0.650684 0.231249 0.504013 -0.642445 0.577227 0.747400 0.708104
-7.848141 -0.647116 0.231249 -0.642323 -0.503891 0.577441 0.748330 0.707939
-7.848141 -0.647116 0.207844 -0.642323 -0.503891 -0.577441 0.748330 0.707939
-7.773947 -0.275091 0.207844 0.642323 0.503891 -0.577471 0.745971 0.690766
-7.773947 -0.275091 0.231249 0.642323 0.503891 0.577471 0.745971 0.690766
-7.803208 -0.271522 0.207844 -0.503983 0.642476 -0.577227 0.746902 0.690601
-7.803208 -0.271522 0.231249 -0.503983 0.642476 0.577227 0.746902 0.690601
-6.684442 0.204493 0.207845 0.792566 -0.196142 -0.577319 0.711324 0.668627
-6.684442 0.204493 0.231249 0.792566 -0.196142 0.577319 0.711324 0.668627
-6.709708 0.189259 0.231249 -0.196173 -0.792535 0.577349 0.712127 0.669330
-6.709708 0.189259 0.207845 -0.196173 -0.792535 -0.577349 0.712127 0.669330
-7.031585 0.779747 0.207845 0.195959 0.792627 -0.577319 0.722363 0.642071
-7.031585 0.779747 0.231249 0.195959 0.792627 0.577319 0.722363 0.642071
-7.056824 0.764513 0.207845 -0.792596 0.195990 -0.577349 0.723166 0.642775
-7.056824 0.764513 0.231249 -0.792596 0.195990 0.577349 0.723166 0.642775
-7.024654 0.373672 0.207845 -0.194617 -0.793054 -0.577197 0.722142 0.660817
-7.024654 0.373672 0.231249 -0.194617 -0.793054 0.577197 0.722142 0.660817
-7.039902 0.398911 0.231249 -0.792871 0.194555 0.577471 0.722628 0.659653
-7.039902 0.398911 0.207845 -0.792871 0.194555 -0.577471 0.722628 0.659653
-6.701377 0.570109 0.207845 0.792901 -0.194433 -0.577441 0.711862 0.651749
-6.701377 0.570109 0.231249 0.792901 -0.194433 0.577441 0.711862 0.651749
-6.716639 0.595348 0.207845 0.194464 0.793054 -0.577227 0.712348 0.650584
-6.716639 0.595348 0.231249 0.194464 0.793054 0.577227 0.712348 0.650584
-7.109443 0.514210 0.207845 -0.194494 -0.793054 -0.577197 0.724839 0.654330
-7.109443 0.514210 0.231249 -0.194494 -0.793054 0.577197 0.724839 0.654330
-7.124691 0.539435 0.231249 -0.792901 0.194464 0.577471 0.725324 0.653165
-7.124691 0.539435 0.207845 -0.792901 0.194464 -0.577471 0.725324 0.653165
-6.786193 0.710646 0.207845 0.792901 -0.194464 -0.577471 0.714559 0.645262
-6.786193 0.710646 0.231249 0.792901 -0.194464 0.577471 0.714559 0.645262
-6.801442 0.735871 0.207845 0.194494 0.793054 -0.577197 0.715044 0.644097
-6.801442 0.735871 0.231249 0.194494 0.793054 0.577197 0.715044 0.644097
-7.187191 0.643039 0.207845 -0.194464 -0.793054 -0.577227 0.727311 0.648383
-7.187191 0.643039 0.231249 -0.194464 -0.793054 0.577227 0.727311 0.648383
-7.202453 0.668279 0.231249 -0.792901 0.194433 0.577441 0.727797 0.647218
-7.202453 0.668279 0.207845 -0.792901 0.194433 -0.577441 0.727797 0.647218
-6.863928 0.839477 0.207845 0.792901 -0.194403 -0.577441 0.717031 0.639315
-6.863928 0.839477 0.231249 0.792901 -0.194403 0.577441 0.717031 0.639315
-6.879189 0.864715 0.207845 0.194433 0.793085 -0.577227 0.717517 0.638150
-6.879189 0.864715 0.231249 0.194433 0.793085 0.577227 0.717517 0.638150
-6.808386 -1.637587 0.207844 -0.089785 0.811518 -0.577319 0.715265 0.753662
-6.808386 -1.637587 0.231249 -0.089785 0.811518 0.577319 0.715265 0.753662
-6.785370 -1.656019 0.231249 0.811518 0.089785 0.577349 0.714533 0.754513
-6.785370 -1.656019 0.207844 0.811518 0.089785 -0.577349 0.714533 0.754513
-7.228309 -2.162076 0.207844 -0.811518 -0.089908 -0.577319 0.728619 0.777874
-7.228309 -2.162076 0.231249 -0.811518 -0.089908 0.577319 0.728619 0.777874
-7.205280 -2.180508 0.207844 0.089908 -0.811518 -0.577349 0.727887 0.778725
-7.205280 -2.180508 0.231249 0.089908 -0.811518 0.577349 0.727887 0.778725
-6.849627 -2.015281 0.207844 0.811426 0.091464 -0.577227 0.716576 0.771097
-6.849627 -2.015281 0.231249 0.811426 0.091464 0.577227 0.716576 0.771097
-6.868032 -2.038310 0.231249 0.091433 -0.811274 0.577441 0.717162 0.772161
-6.868032 -2.038310 0.207844 0.091433 -0.811274 -0.577441 0.717162 0.772161
-7.145648 -1.779771 0.207844 -0.091586 0.811274 -0.577441 0.725990 0.760226
-7.145648 -1.779771 0.231249 -0.091586 0.811274 0.577441 0.725990 0.760226
-7.164052 -1.802814 0.207844 -0.811396 -0.091617 -0.577227 0.726575 0.761290
-7.164052 -1.802814 0.231249 -0.811396 -0.091617 0.577227 0.726575 0.761290
-6.952203 -2.143397 0.207844 0.811396 0.091586 -0.577227 0.719839 0.777012
-6.952203 -2.143397 0.231249 0.811396 0.091586 0.577227 0.719839 0.777012
-6.970608 -2.166440 0.231249 0.091586 -0.811243 0.577441 0.720424 0.778075
-6.970608 -2.166440 0.207844 0.091586 -0.811243 -0.577441 0.720424 0.778075
-7.248224 -1.907901 0.207844 -0.091433 0.811243 -0.577471 0.729252 0.766141
-7.248224 -1.907901 0.231249 -0.091433 0.811243 0.577471 0.729252 0.766141
-7.266642 -1.930944 0.207844 -0.811426 -0.091464 -0.577227 0.729838 0.767204
-7.266642 -1.930944 0.231249 -0.811426 -0.091464 0.577227 0.729838 0.767204
-7.046257 -2.260864 0.207844 0.811426 0.091494 -0.577227 0.722829 0.782434
-7.046257 -2.260864 0.231249 0.811426 0.091494 0.577227 0.722829 0.782434
-7.064661 -2.283893 0.231249 0.091464 -0.811243 0.577441 0.723415 0.783498
-7.064661 -2.283893 0.207844 0.091464 -0.811243 -0.577441 0.723415 0.783498
-7.342276 -2.025382 0.207844 -0.091464 0.811243 -0.577441 0.732243 0.771563
-7.342276 -2.025382 0.231249 -0.091464 0.811243 0.577441 0.732243 0.771563
-7.360681 -2.048411 0.207844 -0.811426 -0.091494 -0.577227 0.732828 0.772627
-7.360681 -2.048411 0.231249 -0.811426 -0.091494 0.577227 0.732828 0.772627
4 0 1 2 3
4 3 2 4 5
4 5 4 6 7
4 8 9 10 11
4 7 0 3 5
4 4 2 1 6
4 1 12 13 6
4 6 13 14 7
4 15 0 7 14
4 0 15 12 1
4 12 16 17 13
4 13 17 18 14
4 14 18 19 15
4 15 19 16 12
4 16 20 21 17
4 17 21 22 18
4 18 22 23 19
4 19 23 20 16
4 20 24 25 21
4 21 25 26 22
4 22 26 27 23
4 23 27 24 20
4 24 28 29 25
4 25 29 30 26
4 26 30 31 27
4 27 31 28 24
4 28 32 33 29
4 29 33 34 30
4 30 34 35 31
4 31 35 32 28
4 32 36 37 33
4 33 37 38 34
4 34 38 39 35
4 35 39 36 32
4 36 40 41 37
4 37 41 42 38
4 38 42 43 39
4 39 43 40 36
4 40 44 45 41
4 41 45 46 42
4 42 46 47 43
4 43 47 44 40
4 44 48 49 45
4 45 49 50 46
4 46 50 51 47
4 47 51 48 44
4 48 52 53 49
4 49 53 54 50
4 50 54 55 51
4 51 55 52 48
4 52 56 57 53
4 53 57 58 54
4 54 58 59 55
4 55 59 56 52
4 56 60 61 57
4 57 61 62 58
4 58 62 63 59
4 59 63 60 56
4 60 64 65 61
4 61 65 66 62
4 62 66 67 63
4 63 67 64 60
4 65 68 69 66
4 66 69 70 67
4 67 70 71 64
4 71 10 9 68
4 68 9 8 69
4 69 8 11 70
4 70 11 10 71
4 68 72 73 71
4 71 73 74 64
4 64 74 75 65
4 65 75 72 68
4 72 76 77 73
4 73 77 78 74
4 74 78 79 75
4 75 79 76 72
4 80 81 82 83
4 84 85 81 80
4 86 87 85 84
4 88 89 90 91
4 84 80 83 86
4 87 82 81 85
4 87 92 93 82
4 86 94 92 87
4 83 95 94 86
4 82 93 95 83
4 92 96 97 93
4 94 98 96 92
4 95 99 98 94
4 93 97 99 95
4 96 100 101 97
4 98 102 100 96
4 99 103 102 98
4 97 101 103 99
4 100 104 105 101
4 102 106 104 100
4 103 107 106 102
4 101 105 107 103
4 104 108 109 105
4 106 110 108 104
4 107 111 110 106
4 105 109 111 107
4 108 112 113 109
4 110 114 112 108
4 111 115 114 110
4 109 113 115 111
4 112 116 117 113
4 114 118 116 112
4 115 119 118 114
4 113 117 119 115
4 116 120 121 117
4 118 122 120 116
4 119 123 122 118
4 117 121 123 119
4 120 124 125 121
4 122 126 124 120
4 123 127 126 122
4 121 125 127 123
4 124 128 129 125
4 126 130 128 124
4 127 131 130 126
4 125 129 131 127
4 128 132 133 129
4 130 134 132 128
4 131 135 134 130
4 129 133 135 131
4 132 136 137 133
4 134 138 136 132
4 135 139 138 134
4 133 137 139 135
4 136 140 141 137
4 138 142 140 136
4 139 143 142 138
4 137 141 143 139
4 140 144 145 141
4 142 146 144 140
4 143 147 146 142
4 141 145 147 143
4 146 148 149 144
4 147 150 148 146
4 145 151 150 147
4 149 90 89 151
4 148 91 90 149
4 150 88 91 148
4 151 89 88 150
4 151 152 153 149
4 145 154 152 151
4 144 155 154 145
4 149 153 155 144
4 152 156 157 153
4 154 158 156 152
4 155 159 158 154
4 153 157 159 155
4 160 161 162 163
4 163 162 164 165
4 165 164 166 167
4 167 166 161 160
4 167 160 163 165
4 164 162 161 166
4 168 169 170 171
4 171 170 172 173
4 173 172 174 175
4 175 174 169 168
4 175 168 171 173
4 172 170 169 174
4 176 177 178 179
4 179 178 180 181
4 181 180 182 183
4 183 182 177 176
4 183 176 179 181
4 180 178 177 182
4 184 185 186 187
4 187 186 188 189
4 189 188 190 191
4 191 190 185 184
4 191 184 187 189
4 188 186 185 190
4 192 193 194 195
4 195 194 196 197
4 197 196 198 199
4 199 198 193 192
4 199 192 195 197
4 196 194 193 198
4 200 201 202 203
4 203 202 204 205
4 205 204 206 207
4 207 206 201 200
4 207 200 203 205
4 204 202 201 206
4 208 209 210 211
4 211 210 212 213
4 213 212 214 215
4 215 214 209 208
4 215 208 211 213
4 212 210 209 214
4 216 217 218 219
4 219 218 220 221
4 221 220 222 223
4 223 222 217 216
4 223 216 219 221
4 220 218 217 222
4 224 225 226 227
4 227 226 228 229
4 229 228 230 231
4 231 230 225 224
4 231 224 227 229
4 228 226 225 230
4 232 233 234 235
4 235 234 236 237
4 237 236 238 239
4 239 238 233 232
4 239 232 235 237
4 236 234 233 238
4 240 241 242 243
4 243 242 244 245
4 245 244 246 247
4 247 246 241 240
4 247 240 243 245
4 244 242 241 246
4 248 249 250 251
4 251 250 252 253
4 253 252 254 255
4 255 254 249 248
4 255 248 251 253
4 252 250 249 254
4 256 257 258 259
4 260 261 257 256
4 262 263 261 260
4 259 258 263 262
4 260 256 259 262
4 263 258 257 261
4 264 265 266 267
4 268 269 265 264
4 270 271 269 268
4 267 266 271 270
4 268 264 267 270
4 271 266 265 269
4 272 273 274 275
4 276 277 273 272
4 278 279 277 276
4 275 274 279 278
4 276 272 275 278
4 279 274 273 277
4 280 281 282 283
4 284 285 281 280
4 286 287 285 284
4 283 282 287 286
4 284 280 283 286
4 287 282 281 285
4 288 289 290 291
4 292 293 289 288
4 294 295 293 292
4 291 290 295 294
4 292 288 291 294
4 295 290 289 293
4 296 297 298 299
4 300 301 297 296
4 302 303 301 300
4 299 298 303 302
4 300 296 299 302
4 303 298 297 301
4 304 305 306 307
4 308 309 305 304
4 310 311 309 308
4 307 306 311 310
4 308 304 307 310
4 311 306 305 309
4 312 313 314 315
4 316 317 313 312
4 318 319 317 316
4 315 314 319 318
4 316 312 315 318
4 319 314 313 317
4 320 321 322 323
4 324 325 321 320
4 326 327 325 324
4 323 322 327 326
4 324 320 323 326
4 327 322 321 325
4 328 329 330 331
4 332 333 329 328
4 334 335 333 332
4 331 330 335 334
4 332 328 331 334
4 335 330 329 333
4 336 337 338 339
4 340 341 337 336
4 342 343 341 340
4 339 338 343 342
4 340 336 339 342
4 343 338 337 341
4 344 345 346 347
4 348 349 345 344
4 350 351 349 348
4 347 346 351 350
4 348 344 347 350
4 351 346 345 349
