ply
format ascii 1.0
comment Created by Blender 2.76 (sub 0) - www.blender.org, source file: 'miami.blend'
element vertex 452
property float x
property float y
property float z
property float nx
property float ny
property float nz
property float s
property float t
element face 338
property list uchar uint vertex_indices
end_header
-0.241158 -0.853242 0.343923 0.000122 -0.007630 0.999969 0.366270 0.304050
-0.472660 1.970718 0.343924 0.000000 0.014679 0.999878 0.218410 0.444210
-0.615001 1.967246 0.343924 0.000000 0.014679 0.999878 0.127500 0.444030
-0.383430 -0.858882 0.343923 0.000122 -0.007630 0.999969 0.275400 0.303770
-0.087059 -0.853242 0.343923 0.000122 -0.007630 0.999969 0.464680 0.304050
-0.318561 1.970718 0.343924 0.000000 0.014679 0.999878 0.316830 0.444210
-0.460901 1.967246 0.343924 0.000000 0.014679 0.999878 0.225920 0.444030
-0.229331 -0.858882 0.343923 0.000122 -0.007630 0.999969 0.373820 0.303770
-0.317795 -1.554253 0.257402 0.000000 0.000000 1.000000 0.317320 0.269260
-0.579801 -1.554253 0.257402 0.000000 0.000000 1.000000 0.149980 0.269260
-0.579803 -6.979248 0.257401 0.000000 0.000000 1.000000 0.149980 0.000000
-0.437420 -6.979248 0.257401 0.000000 0.000000 0.999969 0.240920 0.000000
-0.255587 -6.507208 0.257401 0.000122 -0.007660 0.999969 0.357050 0.023430
-0.397970 -6.507208 0.257401 0.000122 -0.007630 0.999969 0.266110 0.023430
-0.397970 -6.979248 0.257401 0.000000 0.000000 1.000000 0.266110 0.000000
-0.255587 -6.979248 0.257401 0.000000 0.000000 1.000000 0.357050 0.000000
-0.101487 -6.507210 0.257401 0.000122 -0.007660 0.999969 0.455470 0.023430
-0.243870 -6.507208 0.257401 0.000122 -0.007630 0.999969 0.364530 0.023430
-0.243870 -6.979248 0.257401 0.000000 0.000000 1.000000 0.364530 0.000000
-0.101487 -6.979248 0.257401 0.000000 0.000000 1.000000 0.455470 0.000000
0.373886 -6.979248 0.257401 0.000000 0.000000 0.999969 0.759080 0.000000
0.516268 -6.979248 0.257401 0.000000 0.000000 1.000000 0.850010 0.000000
0.516271 -1.554253 0.257402 0.000000 0.000000 0.999969 0.850020 0.269260
0.373888 -1.554253 0.257402 0.000000 0.000000 1.000000 0.759080 0.269260
0.751105 -0.935917 0.257402 0.000000 0.000000 1.000000 1.000000 0.299940
0.655487 -0.717645 0.257402 0.000000 0.000000 1.000000 0.938930 0.310780
0.711376 1.775023 0.257401 0.000000 0.000000 1.000000 0.974630 0.434500
0.401049 10.733112 0.257403 0.000000 0.000000 1.000000 0.776430 0.879110
0.259705 10.715958 0.257403 0.000000 0.000000 1.000000 0.686160 0.878250
0.569022 1.772181 0.257401 0.000000 0.000000 1.000000 0.883710 0.434350
0.192052 -6.979248 0.257401 0.000000 0.000000 1.000000 0.642950 0.000000
0.334435 -6.979248 0.257401 0.000000 0.000000 1.000000 0.733880 0.000000
0.334435 -6.507210 0.257401 -0.000122 -0.007630 0.999969 0.733880 0.023430
0.192053 -6.507210 0.257401 -0.000122 -0.007660 0.999969 0.642950 0.023430
0.037953 -6.979248 0.257401 0.000000 0.000000 1.000000 0.544530 0.000000
0.180336 -6.979248 0.257401 0.000000 0.000000 1.000000 0.635460 0.000000
0.180336 -6.507210 0.257401 -0.000122 -0.007630 0.999969 0.635460 0.023430
0.037953 -6.507210 0.257401 -0.000122 -0.007660 0.999969 0.544530 0.023430
0.319901 -0.858882 0.343923 -0.000122 -0.007630 0.999969 0.724600 0.303770
0.177629 -0.853242 0.343923 -0.000122 -0.007630 0.999969 0.633740 0.304050
0.551474 1.967246 0.343924 0.000000 0.014679 0.999878 0.872500 0.444030
0.409133 1.970718 0.343924 0.000000 0.014679 0.999878 0.781590 0.444210
0.454366 4.911155 0.257403 0.000000 0.014679 0.999878 0.810480 0.590150
0.312031 4.907491 0.257403 0.000000 0.014679 0.999878 0.719570 0.589970
0.377828 9.061901 0.257404 0.000000 0.000000 0.999969 0.761600 0.796160
0.235450 9.060667 0.257404 0.000000 0.000000 1.000000 0.670660 0.796100
0.165801 -0.858882 0.343923 -0.000122 -0.007630 0.999969 0.626180 0.303770
0.023529 -0.853242 0.343923 -0.000122 -0.007630 0.999969 0.535310 0.304050
0.397375 1.967246 0.343924 0.000000 0.014679 0.999878 0.774080 0.444030
0.255034 1.970718 0.343924 0.000000 0.014679 0.999878 0.683170 0.444210
0.300267 4.911155 0.257403 0.000000 0.014679 0.999878 0.712060 0.590150
0.157932 4.907491 0.257403 0.000000 0.014679 0.999878 0.621150 0.589970
0.223728 9.061901 0.257404 0.000000 0.000000 0.999969 0.663180 0.796160
0.081351 9.060667 0.257404 0.000000 0.000000 1.000000 0.572240 0.796100
-0.599392 -0.684254 0.257402 0.000000 0.000000 1.000000 0.137470 0.312440
-0.814635 -0.935903 0.257402 0.000000 0.000000 1.000000 0.000000 0.299940
-0.632549 1.772181 0.257401 0.000000 0.000000 1.000000 0.116290 0.434350
-0.323226 10.715958 0.257403 0.000000 0.000000 0.999969 0.313850 0.878250
-0.464568 10.733112 0.257403 0.000000 0.000000 1.000000 0.223580 0.879110
-0.774903 1.775023 0.257401 0.000000 0.000000 1.000000 0.025380 0.434500
-0.375555 4.907491 0.257403 0.000000 0.014679 0.999878 0.280430 0.589970
-0.517891 4.911155 0.257403 0.000000 0.014679 0.999878 0.189520 0.590150
-0.298972 9.060667 0.257404 0.000000 0.000000 1.000000 0.329340 0.796100
-0.441350 9.061901 0.257404 0.000000 0.000000 1.000000 0.238410 0.796160
-0.221456 4.907491 0.257403 0.000000 0.014679 0.999878 0.378850 0.589970
-0.363792 4.911155 0.257403 0.000000 0.014679 0.999878 0.287940 0.590150
-0.144872 9.060667 0.257404 0.000000 0.000000 1.000000 0.427760 0.796100
-0.287250 9.061901 0.257404 0.000000 0.000000 1.000000 0.336830 0.796160
0.516288 -2.187796 0.253749 0.000000 0.000000 1.000000 0.850030 0.237810
0.546524 -0.706172 0.253749 0.000000 0.000000 1.000000 0.869340 0.311350
0.404077 -0.745314 0.253749 0.000000 0.000000 1.000000 0.778360 0.309400
0.368566 -2.187796 0.253749 0.000000 0.000000 1.000000 0.755680 0.237810
-0.423553 -2.187796 0.253749 0.000000 0.000000 1.000000 0.249770 0.237810
-0.388143 -0.745314 0.253749 0.000000 0.000000 1.000000 0.272390 0.309400
-0.530589 -0.706172 0.253749 0.000000 0.000000 0.999969 0.181410 0.311350
-0.571275 -2.187796 0.253749 0.000000 0.000000 1.000000 0.155430 0.237810
0.516271 -1.554253 0.115019 0.650472 -0.119358 -0.750053 0.518170 0.253270
0.516271 -1.554253 0.257402 0.983551 -0.180456 0.000000 0.518170 0.253270
0.516268 -6.979248 0.257401 0.707083 -0.707083 0.000000 0.518170 0.000000
0.516268 -6.979248 0.115018 0.577349 -0.577349 -0.577349 0.518170 0.000000
0.373886 -6.979248 0.257401 -0.707083 -0.707083 0.000000 0.513450 0.000000
0.373886 -6.979248 0.115018 -0.577349 -0.577349 -0.577349 0.513450 0.000000
0.373888 -1.554253 0.257402 -0.986847 0.161626 0.000000 0.513450 0.253270
0.373888 -1.554253 0.115019 -0.730369 0.119602 -0.672445 0.513450 0.253270
0.655487 -0.717645 0.257402 -0.614154 0.641774 0.459243 0.522780 0.292330
0.655487 -0.717645 0.115019 -0.544603 0.569079 -0.616016 0.522780 0.292330
0.751105 -0.935917 0.115019 0.376476 -0.419202 -0.826106 0.525950 0.282140
0.751105 -0.935917 0.257402 0.568163 -0.632649 0.526231 0.525950 0.282140
1.243872 -0.807114 0.257402 0.078372 -0.668416 0.739616 0.542290 0.288150
1.226364 -0.553035 0.257402 -0.058870 0.744835 0.664632 0.541710 0.300020
1.226364 -0.553035 0.115019 -0.058870 0.744835 -0.664632 0.541710 0.300020
1.243872 -0.807114 0.115019 0.078372 -0.668416 -0.739616 0.542290 0.288150
2.317868 -0.830926 0.257402 -0.135075 -0.646748 0.750633 0.577890 0.287040
2.346936 -0.691542 0.257402 0.185522 0.710715 0.678549 0.578850 0.293550
2.346936 -0.691542 0.115019 0.185522 0.710715 -0.678549 0.578850 0.293550
2.317868 -0.830926 0.115019 -0.135075 -0.646748 -0.750633 0.577890 0.287040
3.333702 -1.248063 0.257402 -0.298746 -0.626637 0.719718 0.611560 0.267570
3.394898 -1.119507 0.257402 0.308847 0.649586 0.694693 0.613590 0.273570
3.394898 -1.119507 0.115019 0.308847 0.649586 -0.694693 0.613590 0.273570
3.333702 -1.248063 0.115019 -0.298746 -0.626637 -0.719718 0.611560 0.267570
4.348945 -1.802855 0.257402 -0.322336 -0.637196 0.700003 0.645220 0.241670
4.413422 -1.675891 0.257402 0.318278 0.624104 0.713523 0.647360 0.247590
4.413422 -1.675891 0.115019 0.318278 0.624104 -0.713523 0.647360 0.247590
4.348945 -1.802855 0.115019 -0.322336 -0.637196 -0.700003 0.645220 0.241670
4.856979 -2.039902 0.257402 -0.158391 -0.734031 0.660329 0.662060 0.230600
4.887131 -1.900751 0.257402 0.137700 0.632832 0.761895 0.663060 0.237100
4.887131 -1.900751 0.115019 0.137700 0.632832 -0.761895 0.663060 0.237100
4.856979 -2.039902 0.115019 -0.158391 -0.734031 -0.660329 0.662060 0.230600
6.019073 -2.026589 0.257402 0.246590 -0.724784 0.643300 0.700580 0.231220
6.017220 -1.884213 0.257402 -0.203192 0.585009 0.785119 0.700520 0.237870
6.017220 -1.884213 0.115019 -0.203192 0.585009 -0.785119 0.700520 0.237870
6.019073 -2.026589 0.115019 0.246590 -0.724784 -0.643300 0.700580 0.231220
7.025244 -1.270489 0.257402 0.714682 -0.333232 0.614917 0.733940 0.266520
6.896099 -1.210527 0.257402 -0.508713 0.235054 0.828181 0.729660 0.269320
6.896099 -1.210527 0.115020 -0.508713 0.235054 -0.828181 0.729660 0.269320
7.025244 -1.270489 0.115020 0.714682 -0.333232 -0.614917 0.733940 0.266520
6.964048 -0.132920 0.257403 0.664205 0.431928 0.610096 0.731910 0.319630
6.844934 -0.210916 0.257403 -0.451857 -0.298044 0.840815 0.727960 0.315990
6.844934 -0.210916 0.115020 -0.451857 -0.298044 -0.840815 0.727960 0.315990
6.964048 -0.132920 0.115020 0.664205 0.431928 -0.610096 0.731910 0.319630
5.917224 0.400655 0.257402 0.226508 0.704184 0.672903 0.697210 0.344540
5.874144 0.264935 0.257402 -0.199622 -0.638783 0.743004 0.695780 0.338200
5.874144 0.264935 0.115019 -0.199622 -0.638783 -0.743004 0.695780 0.338200
5.917224 0.400655 0.115020 0.226508 0.704184 -0.672903 0.697210 0.344540
4.483677 0.618871 0.257402 0.058626 0.719748 0.691733 0.649690 0.354730
4.472148 0.476948 0.257402 -0.055696 -0.688528 0.723014 0.649300 0.348100
4.472148 0.476948 0.115019 -0.055696 -0.688528 -0.723014 0.649300 0.348100
4.483677 0.618871 0.115019 0.058626 0.719748 -0.691733 0.649690 0.354730
3.090452 0.634970 0.257402 -0.025086 0.716819 0.696768 0.603500 0.355480
3.095420 0.492676 0.257402 0.024354 -0.695914 0.717704 0.603660 0.348840
3.095420 0.492676 0.115019 0.024354 -0.695914 -0.717704 0.603660 0.348840
3.090452 0.634970 0.115019 -0.025086 0.716819 -0.696768 0.603500 0.355480
1.526080 0.507087 0.257401 -0.110691 0.714103 0.691214 0.551640 0.349510
1.547723 0.366357 0.257401 0.104160 -0.682730 0.723167 0.552360 0.342940
1.547723 0.366357 0.115018 0.104160 -0.682730 -0.723167 0.552360 0.342940
1.526080 0.507087 0.115018 -0.110691 0.714103 -0.691214 0.551640 0.349510
0.896803 0.362363 0.257401 -0.014893 0.654958 0.755486 0.530780 0.342750
0.897540 0.220001 0.257401 -0.005280 -0.751671 0.659474 0.530810 0.336110
0.897540 0.220001 0.115018 -0.005280 -0.751671 -0.659474 0.530810 0.336110
0.896803 0.362363 0.115018 -0.014893 0.654958 -0.755486 0.530780 0.342750
0.694874 0.399227 0.257401 0.352367 0.416181 0.838191 0.524090 0.344470
0.602629 0.290777 0.257401 -0.510086 -0.598315 0.617878 0.521030 0.339410
0.602629 0.290777 0.115018 -0.510086 -0.598315 -0.617878 0.521030 0.339410
0.694874 0.399227 0.115018 0.352397 0.416181 -0.838191 0.524090 0.344470
0.615999 0.617884 0.257401 0.646290 0.085788 0.758202 0.521470 0.354680
0.475147 0.597050 0.257401 -0.743828 -0.118015 0.657857 0.516800 0.353710
0.475147 0.597050 0.115018 -0.743828 -0.118015 -0.657857 0.516800 0.353710
0.615999 0.617884 0.115018 0.646290 0.085788 -0.758202 0.521470 0.354680
0.711376 1.775023 0.257401 0.905362 -0.021546 0.424055 0.524640 0.408700
0.569022 1.772181 0.257401 -0.882382 0.019898 0.470077 0.519920 0.408570
0.569022 1.772181 0.115018 -0.693594 0.015656 -0.720176 0.519920 0.408570
0.711376 1.775023 0.115018 0.719565 -0.017121 -0.694174 0.524640 0.408700
0.259705 10.715958 0.257403 -0.999390 -0.034547 0.000000 0.509660 0.826120
0.259705 10.715958 0.115020 -0.687551 -0.023774 -0.725730 0.509660 0.826120
0.401049 10.733112 0.115020 0.726310 0.025147 -0.686880 0.514350 0.826920
0.401049 10.733112 0.257403 0.999390 0.034608 0.000000 0.514350 0.826920
0.334435 -6.507210 0.115018 0.703909 0.012177 -0.710135 0.512140 0.022040
0.334435 -6.507210 0.257401 0.999969 0.001282 0.000000 0.512140 0.022040
0.334435 -6.979248 0.257401 0.707083 -0.707083 0.000000 0.512140 0.000000
0.334435 -6.979248 0.115018 0.577349 -0.577349 -0.577349 0.512140 0.000000
0.192052 -6.979248 0.257401 -0.707083 -0.707083 0.000000 0.507420 0.000000
0.192052 -6.979248 0.115018 -0.577349 -0.577349 -0.577349 0.507420 0.000000
0.192053 -6.507210 0.257401 -0.999969 -0.001251 0.000000 0.507420 0.022040
0.192053 -6.507210 0.115018 -0.703146 0.010407 -0.710959 0.507420 0.022040
0.180336 -6.507210 0.115018 0.703909 0.012177 -0.710135 0.507030 0.022040
0.180336 -6.507210 0.257401 0.999969 0.001282 0.000000 0.507030 0.022040
0.180336 -6.979248 0.257401 0.707083 -0.707083 0.000000 0.507030 0.000000
0.180336 -6.979248 0.115018 0.577349 -0.577349 -0.577349 0.507030 0.000000
0.037953 -6.979248 0.257401 -0.707083 -0.707083 0.000000 0.502310 0.000000
0.037953 -6.979248 0.115018 -0.577349 -0.577349 -0.577349 0.502310 0.000000
0.037953 -6.507210 0.257401 -0.999969 -0.001251 0.000000 0.502310 0.022040
0.037953 -6.507210 0.115018 -0.703146 0.010407 -0.710959 0.502310 0.022040
0.177629 -0.853242 0.343923 -0.999207 0.039796 0.000000 0.506940 0.286000
0.177629 -0.853242 0.294913 -0.718986 0.039247 -0.693869 0.506940 0.286000
0.319901 -0.858882 0.294913 0.700797 -0.016083 -0.713157 0.511660 0.285740
0.319901 -0.858882 0.343923 0.999207 -0.039766 0.000000 0.511660 0.285740
0.409133 1.970718 0.343924 -0.999664 0.024903 0.000000 0.514620 0.417840
0.409133 1.970718 0.294914 -0.700827 -0.005463 -0.713279 0.514620 0.417840
0.551474 1.967246 0.294914 0.725883 -0.037873 -0.686728 0.519330 0.417680
0.551474 1.967246 0.343924 0.999664 -0.024903 0.000000 0.519330 0.417680
0.312031 4.907491 0.257403 -0.999664 -0.025788 0.000000 0.511400 0.554950
0.312031 4.907491 0.115020 -0.701407 -0.039705 -0.711631 0.511400 0.554950
0.454366 4.911155 0.115020 0.698691 -0.003998 -0.715384 0.516120 0.555120
0.454366 4.911155 0.257403 0.999664 0.025758 0.000000 0.516120 0.555120
0.235450 9.060667 0.257404 -0.999817 -0.018433 0.000000 0.508860 0.748840
0.235450 9.060667 0.115021 -0.709159 -0.013062 -0.704886 0.508860 0.748840
0.377828 9.061901 0.115021 0.704764 0.012970 -0.709281 0.513580 0.748900
0.377828 9.061901 0.257404 0.999817 0.018433 0.000000 0.513580 0.748900
0.023529 -0.853242 0.343923 -0.999207 0.039796 0.000000 0.501830 0.286000
0.023529 -0.853242 0.294913 -0.718986 0.039247 -0.693869 0.501830 0.286000
0.165801 -0.858882 0.294913 0.700797 -0.016083 -0.713157 0.506550 0.285740
0.165801 -0.858882 0.343923 0.999207 -0.039766 0.000000 0.506550 0.285740
0.255034 1.970718 0.343924 -0.999664 0.024903 0.000000 0.509510 0.417840
0.255034 1.970718 0.294914 -0.700827 -0.005463 -0.713279 0.509510 0.417840
0.397375 1.967246 0.294914 0.725883 -0.037873 -0.686728 0.514230 0.417680
0.397375 1.967246 0.343924 0.999664 -0.024903 0.000000 0.514230 0.417680
0.157932 4.907491 0.257403 -0.999664 -0.025788 0.000000 0.506290 0.554950
0.157932 4.907491 0.115020 -0.701407 -0.039705 -0.711631 0.506290 0.554950
0.300267 4.911155 0.115020 0.698691 -0.003998 -0.715384 0.511010 0.555120
0.300267 4.911155 0.257403 0.999664 0.025758 0.000000 0.511010 0.555120
0.081351 9.060667 0.257404 -0.999817 -0.018433 0.000000 0.503750 0.748840
0.081351 9.060667 0.115021 -0.709159 -0.013062 -0.704886 0.503750 0.748840
0.223728 9.061901 0.115021 0.704764 0.012970 -0.709281 0.508470 0.748900
0.223728 9.061901 0.257404 0.999817 0.018433 0.000000 0.508470 0.748900
-0.579803 -6.979248 0.115018 -0.577349 -0.577349 -0.577349 0.481830 0.000000
-0.579803 -6.979248 0.257401 -0.707083 -0.707083 0.000000 0.481830 0.000000
-0.579801 -1.554253 0.257402 -0.983551 -0.180456 0.000000 0.481830 0.253270
-0.579801 -1.554253 0.115019 -0.650472 -0.119358 -0.750053 0.481830 0.253270
-0.437420 -6.979248 0.115018 0.570360 -0.583087 -0.578509 0.486550 0.000000
-0.437420 -6.979248 0.257401 0.699240 -0.714835 0.000000 0.486550 0.000000
-0.317795 -1.554253 0.115019 0.733238 0.107425 -0.671407 0.490520 0.253270
-0.317795 -1.554253 0.257402 0.989410 0.144963 0.000000 0.490520 0.253270
-0.599392 -0.684254 0.115019 0.536851 0.581011 -0.611682 0.481180 0.293890
-0.599392 -0.684254 0.257402 0.629933 0.681783 0.371868 0.481180 0.293890
-0.814635 -0.935903 0.115019 -0.376476 -0.419202 -0.826106 0.474050 0.282140
-0.814635 -0.935903 0.257402 -0.541093 -0.602496 0.586657 0.474050 0.282140
-1.289888 -0.519644 0.257402 0.030488 0.744987 0.666341 0.458290 0.301580
-1.307400 -0.807114 0.257402 -0.078372 -0.668416 0.739616 0.457710 0.288150
-1.289888 -0.519644 0.115019 0.030488 0.744987 -0.666341 0.458290 0.301580
-1.307400 -0.807114 0.115019 -0.078372 -0.668416 -0.739616 0.457710 0.288150
-2.410466 -0.691542 0.257402 -0.195135 0.705222 0.681570 0.421150 0.293550
-2.381384 -0.830926 0.257402 0.135075 -0.646748 0.750633 0.422110 0.287040
-2.410466 -0.691542 0.115019 -0.195135 0.705222 -0.681570 0.421150 0.293550
-2.381384 -0.830926 0.115019 0.135075 -0.646748 -0.750633 0.422110 0.287040
-3.458442 -1.119507 0.257402 -0.308878 0.649586 0.694693 0.386410 0.273570
-3.397231 -1.248063 0.257402 0.298746 -0.626637 0.719718 0.388440 0.267570
-3.458442 -1.119507 0.115019 -0.308847 0.649586 -0.694693 0.386410 0.273570
-3.397231 -1.248063 0.115019 0.298746 -0.626637 -0.719718 0.388440 0.267570
-4.476952 -1.675891 0.257402 -0.318278 0.624104 0.713523 0.352640 0.247590
-4.412475 -1.802842 0.257402 0.322336 -0.637196 0.700003 0.354780 0.241670
-4.476952 -1.675891 0.115019 -0.318278 0.624104 -0.713523 0.352640 0.247590
-4.412475 -1.802842 0.115019 0.322336 -0.637196 -0.700003 0.354780 0.241670
-4.950647 -1.900751 0.257402 -0.137700 0.632832 0.761925 0.336940 0.237100
-4.920508 -2.039902 0.257402 0.158422 -0.734031 0.660329 0.337940 0.230600
-4.950647 -1.900751 0.115019 -0.137700 0.632832 -0.761925 0.336940 0.237100
-4.920508 -2.039902 0.115019 0.158422 -0.734031 -0.660329 0.337940 0.230600
-6.080750 -1.884213 0.257402 0.203192 0.585009 0.785119 0.299480 0.237870
-6.082602 -2.026589 0.257402 -0.246590 -0.724784 0.643300 0.299420 0.231220
-6.080750 -1.884213 0.115019 0.203192 0.585009 -0.785119 0.299480 0.237870
-6.082602 -2.026589 0.115019 -0.246590 -0.724784 -0.643300 0.299420 0.231220
-6.959628 -1.210527 0.257402 0.508713 0.235054 0.828181 0.270350 0.269320
-7.088774 -1.270489 0.257402 -0.714682 -0.333232 0.614917 0.266060 0.266520
-6.959628 -1.210527 0.115020 0.508713 0.235054 -0.828181 0.270350 0.269320
-7.088774 -1.270489 0.115020 -0.714682 -0.333232 -0.614917 0.266060 0.266520
-6.908463 -0.210902 0.257403 0.451857 -0.298044 0.840815 0.272040 0.315990
-7.027577 -0.132906 0.257403 -0.664205 0.431928 0.610096 0.268090 0.319630
-6.908463 -0.210902 0.115020 0.451857 -0.298044 -0.840815 0.272040 0.315990
-7.027577 -0.132906 0.115020 -0.664205 0.431928 -0.610096 0.268090 0.319630
-5.937687 0.264935 0.257402 0.199622 -0.638783 0.743004 0.304220 0.338200
-5.980740 0.400655 0.257402 -0.226508 0.704184 0.672903 0.302790 0.344540
-5.937687 0.264935 0.115019 0.199622 -0.638783 -0.743004 0.304220 0.338200
-5.980740 0.400655 0.115020 -0.226508 0.704184 -0.672903 0.302790 0.344540
-4.535678 0.476948 0.257402 0.055696 -0.688528 0.723014 0.350700 0.348100
-4.547206 0.618871 0.257402 -0.058626 0.719748 0.691733 0.350320 0.354730
-4.535678 0.476948 0.115019 0.055696 -0.688528 -0.723014 0.350700 0.348100
-4.547206 0.618871 0.115019 -0.058626 0.719748 -0.691733 0.350320 0.354730
-3.158949 0.492676 0.257402 -0.024354 -0.695914 0.717704 0.396340 0.348840
-3.153967 0.634970 0.257402 0.025086 0.716819 0.696768 0.396500 0.355480
-3.158949 0.492676 0.115019 -0.024354 -0.695914 -0.717704 0.396340 0.348840
-3.153967 0.634970 0.115019 0.025086 0.716819 -0.696768 0.396500 0.355480
-1.611243 0.366357 0.257401 -0.104160 -0.682730 0.723167 0.447640 0.342940
-1.589614 0.507087 0.257401 0.110691 0.714103 0.691214 0.448360 0.349510
-1.611243 0.366357 0.115018 -0.104160 -0.682730 -0.723167 0.447640 0.342940
-1.589614 0.507087 0.115018 0.110691 0.714103 -0.691214 0.448360 0.349510
-0.961068 0.220001 0.257401 -0.047151 -0.737724 0.673421 0.469190 0.336110
-0.960331 0.362378 0.257401 0.014863 0.654958 0.755486 0.469220 0.342750
-0.961068 0.220001 0.115018 -0.047151 -0.737724 -0.673421 0.469190 0.336110
-0.960331 0.362378 0.115018 0.014863 0.654958 -0.755486 0.469220 0.342750
-0.608355 0.253145 0.257401 0.485000 -0.631733 0.604663 0.480890 0.337650
-0.758402 0.399241 0.257401 -0.352367 0.416181 0.838191 0.475910 0.344470
-0.608355 0.253145 0.115018 0.485000 -0.631733 -0.604663 0.480890 0.337650
-0.758402 0.399241 0.115018 -0.352367 0.416181 -0.838191 0.475910 0.344470
-0.480874 0.597050 0.257401 0.749046 -0.085238 0.656972 0.485110 0.353710
-0.679527 0.617884 0.257401 -0.646290 0.085788 0.758232 0.478530 0.354680
-0.480874 0.597050 0.115018 0.749046 -0.085238 -0.656972 0.485110 0.353710
-0.679527 0.617884 0.115018 -0.646290 0.085788 -0.758232 0.478530 0.354680
-0.632549 1.772181 0.257401 0.875607 0.041078 0.481246 0.480080 0.408570
-0.774903 1.775023 0.257401 -0.905362 -0.021546 0.424055 0.475370 0.408700
-0.632549 1.772181 0.115018 0.687033 0.032228 -0.725883 0.480080 0.408570
-0.774903 1.775023 0.115018 -0.719565 -0.017121 -0.694174 0.475370 0.408700
-0.323226 10.715958 0.115020 0.687551 -0.023774 -0.725730 0.490340 0.826120
-0.323226 10.715958 0.257403 0.999390 -0.034547 0.000000 0.490340 0.826120
-0.464568 10.733112 0.115020 -0.726310 0.025147 -0.686880 0.485650 0.826920
-0.464568 10.733112 0.257403 -0.999390 0.034608 0.000000 0.485650 0.826920
-0.397970 -6.979248 0.115018 -0.577349 -0.577349 -0.577349 0.487860 0.000000
-0.397970 -6.979248 0.257401 -0.707083 -0.707083 0.000000 0.487860 0.000000
-0.397970 -6.507208 0.257401 -0.999969 0.001282 0.000000 0.487860 0.022040
-0.397970 -6.507208 0.115018 -0.703909 0.012177 -0.710135 0.487860 0.022040
-0.255587 -6.979248 0.115018 0.577349 -0.577349 -0.577349 0.492580 0.000000
-0.255587 -6.979248 0.257401 0.707083 -0.707083 0.000000 0.492580 0.000000
-0.255587 -6.507208 0.115018 0.703146 0.010407 -0.710959 0.492580 0.022040
-0.255587 -6.507208 0.257401 0.999969 -0.001282 0.000000 0.492580 0.022040
-0.243870 -6.979248 0.115018 -0.577349 -0.577349 -0.577349 0.492970 0.000000
-0.243870 -6.979248 0.257401 -0.707083 -0.707083 0.000000 0.492970 0.000000
-0.243870 -6.507208 0.257401 -0.999969 0.001282 0.000000 0.492970 0.022040
-0.243870 -6.507208 0.115018 -0.703909 0.012177 -0.710135 0.492970 0.022040
-0.101487 -6.979248 0.115018 0.577349 -0.577349 -0.577349 0.497690 0.000000
-0.101487 -6.979248 0.257401 0.707083 -0.707083 0.000000 0.497690 0.000000
-0.101487 -6.507210 0.115018 0.703146 0.010407 -0.710959 0.497690 0.022040
-0.101487 -6.507210 0.257401 0.999969 -0.001282 0.000000 0.497690 0.022040
-0.241158 -0.853242 0.294913 0.718986 0.039247 -0.693869 0.493060 0.286000
-0.241158 -0.853242 0.343923 0.999207 0.039796 0.000000 0.493060 0.286000
-0.383430 -0.858882 0.294913 -0.700797 -0.016083 -0.713157 0.488340 0.285740
-0.383430 -0.858882 0.343923 -0.999207 -0.039766 0.000000 0.488340 0.285740
-0.472660 1.970718 0.294914 0.700827 -0.005463 -0.713279 0.485390 0.417840
-0.472660 1.970718 0.343924 0.999664 0.024903 0.000000 0.485390 0.417840
-0.615001 1.967246 0.294914 -0.725883 -0.037873 -0.686728 0.480670 0.417680
-0.615001 1.967246 0.343924 -0.999664 -0.024903 0.000000 0.480670 0.417680
-0.375555 4.907491 0.115020 0.701407 -0.039705 -0.711631 0.488600 0.554950
-0.375555 4.907491 0.257403 0.999664 -0.025788 0.000000 0.488600 0.554950
-0.517891 4.911155 0.115020 -0.698691 -0.003998 -0.715384 0.483880 0.555120
-0.517891 4.911155 0.257403 -0.999664 0.025758 0.000000 0.483880 0.555120
-0.298972 9.060667 0.115021 0.709159 -0.013062 -0.704886 0.491140 0.748840
-0.298972 9.060667 0.257404 0.999817 -0.018433 0.000000 0.491140 0.748840
-0.441350 9.061901 0.115021 -0.704764 0.012970 -0.709281 0.486420 0.748900
-0.441350 9.061901 0.257404 -0.999817 0.018433 0.000000 0.486420 0.748900
-0.087059 -0.853242 0.294913 0.718986 0.039247 -0.693869 0.498170 0.286000
-0.087059 -0.853242 0.343923 0.999207 0.039796 0.000000 0.498170 0.286000
-0.229331 -0.858882 0.294913 -0.700797 -0.016083 -0.713157 0.493450 0.285740
-0.229331 -0.858882 0.343923 -0.999207 -0.039766 0.000000 0.493450 0.285740
-0.318561 1.970718 0.294914 0.700827 -0.005463 -0.713279 0.490490 0.417840
-0.318561 1.970718 0.343924 0.999664 0.024903 0.000000 0.490490 0.417840
-0.460901 1.967246 0.294914 -0.725883 -0.037873 -0.686728 0.485770 0.417680
-0.460901 1.967246 0.343924 -0.999664 -0.024903 0.000000 0.485770 0.417680
-0.221456 4.907491 0.115020 0.701407 -0.039705 -0.711631 0.493710 0.554950
-0.221456 4.907491 0.257403 0.999664 -0.025788 0.000000 0.493710 0.554950
-0.363792 4.911155 0.115020 -0.698691 -0.003998 -0.715384 0.488990 0.555120
-0.363792 4.911155 0.257403 -0.999664 0.025758 0.000000 0.488990 0.555120
-0.144872 9.060667 0.115021 0.709159 -0.013062 -0.704886 0.496250 0.748840
-0.144872 9.060667 0.257404 0.999817 -0.018433 0.000000 0.496250 0.748840
-0.287250 9.061901 0.115021 -0.704764 0.012970 -0.709281 0.491530 0.748900
-0.287250 9.061901 0.257404 -0.999817 0.018433 0.000000 0.491530 0.748900
0.368566 -2.345571 0.253749 -0.577349 -0.577349 0.577349 0.513270 0.216330
0.516288 -2.345571 0.253749 0.577349 -0.577349 0.577349 0.518170 0.216330
0.516288 -2.187796 0.253749 0.894345 -0.009095 0.447218 0.518170 0.223690
0.368566 -2.187796 0.253749 -0.894345 0.010987 0.447218 0.513270 0.223690
-2.067893 0.398733 0.253749 -0.716086 -0.392254 0.577319 0.432500 0.344450
-2.026459 0.540519 0.253749 -0.392163 0.716147 0.577319 0.433880 0.351070
-2.026459 0.540519 0.037472 -0.392163 0.716147 -0.577319 0.433880 0.351070
-2.067893 0.398733 0.037472 -0.716086 -0.392254 -0.577319 0.432500 0.344450
0.368566 -2.187796 0.037471 -0.709799 0.008728 -0.704337 0.513270 0.223690
0.516288 -2.187796 0.037471 0.704733 -0.007172 -0.709403 0.518170 0.223690
0.516288 -2.345571 0.037471 0.577349 -0.577349 -0.577349 0.518170 0.216330
0.368566 -2.345571 0.037471 -0.577349 -0.577349 -0.577349 0.513270 0.216330
0.546524 -0.706172 0.037472 0.734123 0.202063 -0.648213 0.519170 0.292870
0.546524 -0.706172 0.253749 0.887143 0.244179 0.391522 0.519170 0.292870
0.404077 -0.745314 0.253749 -0.819971 -0.224799 0.526353 0.514450 0.291040
0.404077 -0.745314 0.037472 -0.605823 -0.166082 -0.778039 0.514450 0.291040
0.202890 -0.155112 0.037472 0.519364 0.549669 -0.654256 0.507780 0.318590
0.202890 -0.155112 0.253749 0.519364 0.549669 0.654256 0.507780 0.318590
0.101604 -0.262642 0.253749 -0.437391 -0.465987 0.769097 0.504420 0.313570
0.101604 -0.262642 0.037472 -0.437391 -0.465987 -0.769097 0.504420 0.313570
-0.357738 0.151833 0.037472 0.240181 0.701743 -0.670705 0.489190 0.332920
-0.357738 0.151833 0.253749 0.240181 0.701743 0.670705 0.489190 0.332920
-0.405345 0.011995 0.253749 -0.213019 -0.629414 0.747276 0.487620 0.326400
-0.405345 0.011995 0.037472 -0.213019 -0.629414 -0.747276 0.487620 0.326400
-1.107395 0.271783 0.037472 0.152135 0.675436 -0.721519 0.464340 0.338520
-1.107395 0.271783 0.253749 0.152135 0.675436 0.721519 0.464340 0.338520
-1.139771 0.127663 0.253749 -0.157445 -0.703513 0.692984 0.463270 0.331800
-1.139771 0.127663 0.037472 -0.157445 -0.703513 -0.692984 0.463270 0.331800
-0.423553 -2.187796 0.253749 0.899197 -0.032350 0.436323 0.487010 0.223690
-0.571275 -2.187796 0.253749 -0.888363 0.033235 0.457900 0.482120 0.223690
-0.578759 -2.345571 0.253749 -0.592120 -0.564684 0.574877 0.481870 0.216330
-0.431038 -2.345571 0.253749 0.562243 -0.589557 0.579882 0.486760 0.216330
1.926903 0.398733 0.037472 0.716086 -0.392285 -0.577319 0.564930 0.344450
1.885469 0.540519 0.037472 0.392163 0.716147 -0.577319 0.563560 0.351070
1.885469 0.540519 0.253749 0.392163 0.716147 0.577319 0.563560 0.351070
1.926903 0.398733 0.253749 0.716086 -0.392285 0.577319 0.564930 0.344450
-0.431038 -2.345571 0.037471 0.562243 -0.589557 -0.579882 0.486760 0.216330
-0.578759 -2.345571 0.037471 -0.592120 -0.564684 -0.574877 0.481870 0.216330
-0.571275 -2.187796 0.037471 -0.704337 0.026368 -0.709342 0.482120 0.223690
-0.423553 -2.187796 0.037471 0.709189 -0.025513 -0.704520 0.487010 0.223690
-0.530589 -0.706172 0.253749 -0.882870 0.125767 0.452406 0.483460 0.292870
-0.530589 -0.706172 0.037472 -0.723685 0.103092 -0.682363 0.483460 0.292870
-0.388143 -0.745314 0.037472 0.665761 -0.106540 -0.738487 0.488190 0.291040
-0.388143 -0.745314 0.253749 0.878750 -0.140629 0.456069 0.488190 0.291040
-0.343882 0.008468 0.253749 -0.595477 0.510086 0.620624 0.489650 0.326230
-0.343882 0.008468 0.037472 -0.595477 0.510086 -0.620624 0.489650 0.326230
-0.242597 -0.262642 0.253749 0.461348 -0.375835 0.803644 0.493010 0.313570
-0.242597 -0.262642 0.037472 0.461348 -0.375835 -0.803644 0.493010 0.313570
0.216745 0.251924 0.253749 -0.161260 0.727714 0.666646 0.508240 0.337600
0.216745 0.251924 0.037472 -0.161260 0.727714 -0.666646 0.508240 0.337600
0.264352 0.011995 0.253749 0.213019 -0.629414 0.747276 0.509820 0.326400
0.264352 0.011995 0.037472 0.213019 -0.629414 -0.747276 0.509820 0.326400
0.966411 0.271783 0.253749 -0.104617 0.667470 0.737236 0.533090 0.338520
0.966411 0.271783 0.037472 -0.104617 0.667470 -0.737236 0.533090 0.338520
0.998776 0.127663 0.253749 0.157445 -0.703513 0.692984 0.534160 0.331800
0.998776 0.127663 0.037472 0.157445 -0.703513 -0.692984 0.534160 0.331800
0.334623 0.260817 0.323951 -0.577349 -0.577349 0.577349 0.512150 0.338010
0.381216 0.260817 0.323951 0.577349 -0.577349 0.577349 0.513690 0.338010
0.381216 0.307412 0.323951 0.577349 0.577349 0.577349 0.513690 0.340190
0.334623 0.307412 0.323951 -0.577349 0.577349 0.577349 0.512150 0.340190
0.381216 0.307412 0.220091 0.577349 0.577349 -0.577349 0.513690 0.340190
0.334623 0.307412 0.220091 -0.577349 0.577349 -0.577349 0.512150 0.340190
0.381216 0.260817 0.220091 0.577349 -0.577349 -0.577349 0.513690 0.338010
0.334623 0.260817 0.220091 -0.577349 -0.577349 -0.577349 0.512150 0.338010
0.273009 -0.763539 0.323951 -0.577349 -0.577349 0.577349 0.510100 0.290190
0.319602 -0.763539 0.323951 0.577349 -0.577349 0.577349 0.511650 0.290190
0.319602 -0.716959 0.323951 0.577349 0.577349 0.577349 0.511650 0.292360
0.273009 -0.716959 0.323951 -0.577349 0.577349 0.577349 0.510100 0.292360
0.319602 -0.716959 0.220091 0.577349 0.577349 -0.577349 0.511650 0.292360
0.273009 -0.716959 0.220091 -0.577349 0.577349 -0.577349 0.510100 0.292360
0.319602 -0.763539 0.220091 0.577349 -0.577349 -0.577349 0.511650 0.290190
0.273009 -0.763539 0.220091 -0.577349 -0.577349 -0.577349 0.510100 0.290190
0.075966 -0.763539 0.323951 -0.577349 -0.577349 0.577349 0.503570 0.290190
0.122558 -0.763539 0.323951 0.577349 -0.577349 0.577349 0.505120 0.290190
0.122558 -0.716959 0.323951 0.577349 0.577349 0.577349 0.505120 0.292360
0.075966 -0.716959 0.323951 -0.577349 0.577349 0.577349 0.503570 0.292360
0.122558 -0.716959 0.220091 0.577349 0.577349 -0.577349 0.505120 0.292360
0.075966 -0.716959 0.220091 -0.577349 0.577349 -0.577349 0.503570 0.292360
0.122558 -0.763539 0.220091 0.577349 -0.577349 -0.577349 0.505120 0.290190
0.075966 -0.763539 0.220091 -0.577349 -0.577349 -0.577349 0.503570 0.290190
0.123805 0.260817 0.323951 -0.577349 -0.577349 0.577349 0.505160 0.338010
0.170397 0.260817 0.323951 0.577349 -0.577349 0.577349 0.506700 0.338010
0.170397 0.307412 0.323951 0.577349 0.577349 0.577349 0.506700 0.340190
0.123805 0.307412 0.323951 -0.577349 0.577349 0.577349 0.505160 0.340190
0.170397 0.307412 0.220091 0.577349 0.577349 -0.577349 0.506700 0.340190
0.123805 0.307412 0.220091 -0.577349 0.577349 -0.577349 0.505160 0.340190
0.170397 0.260817 0.220091 0.577349 -0.577349 -0.577349 0.506700 0.338010
0.123805 0.260817 0.220091 -0.577349 -0.577349 -0.577349 0.505160 0.338010
-0.394488 0.307412 0.323951 0.577349 0.577349 0.577349 0.487980 0.340190
-0.441081 0.307412 0.323951 -0.577349 0.577349 0.577349 0.486430 0.340190
-0.441081 0.260817 0.323951 -0.577349 -0.577349 0.577349 0.486430 0.338010
-0.394488 0.260817 0.323951 0.577349 -0.577349 0.577349 0.487980 0.338010
-0.394488 0.307412 0.220091 0.577349 0.577349 -0.577349 0.487980 0.340190
-0.441081 0.307412 0.220091 -0.577349 0.577349 -0.577349 0.486430 0.340190
-0.394488 0.260817 0.220091 0.577349 -0.577349 -0.577349 0.487980 0.338010
-0.441081 0.260817 0.220091 -0.577349 -0.577349 -0.577349 0.486430 0.338010
-0.332875 -0.716959 0.323951 0.577349 0.577349 0.577349 0.490020 0.292360
-0.379468 -0.716959 0.323951 -0.577349 0.577349 0.577349 0.488470 0.292360
-0.379468 -0.763539 0.323951 -0.577349 -0.577349 0.577349 0.488470 0.290190
-0.332875 -0.763539 0.323951 0.577349 -0.577349 0.577349 0.490020 0.290190
-0.332875 -0.716959 0.220091 0.577349 0.577349 -0.577349 0.490020 0.292360
-0.379468 -0.716959 0.220091 -0.577349 0.577349 -0.577349 0.488470 0.292360
-0.332875 -0.763539 0.220091 0.577349 -0.577349 -0.577349 0.490020 0.290190
-0.379468 -0.763539 0.220091 -0.577349 -0.577349 -0.577349 0.488470 0.290190
-0.135831 -0.716959 0.323951 0.577349 0.577349 0.577349 0.496550 0.292360
-0.182424 -0.716959 0.323951 -0.577349 0.577349 0.577349 0.495010 0.292360
-0.182424 -0.763539 0.323951 -0.577349 -0.577349 0.577349 0.495010 0.290190
-0.135831 -0.763539 0.323951 0.577349 -0.577349 0.577349 0.496550 0.290190
-0.135831 -0.716959 0.220091 0.577349 0.577349 -0.577349 0.496550 0.292360
-0.182424 -0.716959 0.220091 -0.577349 0.577349 -0.577349 0.495010 0.292360
-0.135831 -0.763539 0.220091 0.577349 -0.577349 -0.577349 0.496550 0.290190
-0.182424 -0.763539 0.220091 -0.577349 -0.577349 -0.577349 0.495010 0.290190
-0.183671 0.307412 0.323951 0.577349 0.577349 0.577349 0.494960 0.340190
-0.230264 0.307412 0.323951 -0.577349 0.577349 0.577349 0.493420 0.340190
-0.230264 0.260817 0.323951 -0.577349 -0.577349 0.577349 0.493420 0.338010
-0.183671 0.260817 0.323951 0.577349 -0.577349 0.577349 0.494960 0.338010
-0.183671 0.307412 0.220091 0.577349 0.577349 -0.577349 0.494960 0.340190
-0.230264 0.307412 0.220091 -0.577349 0.577349 -0.577349 0.493420 0.340190
-0.183671 0.260817 0.220091 0.577349 -0.577349 -0.577349 0.494960 0.338010
-0.230264 0.260817 0.220091 -0.577349 -0.577349 -0.577349 0.493420 0.338010
4 0 1 2 3
4 4 5 6 7
4 8 9 10 11
4 12 13 14 15
4 16 17 18 19
4 12 0 3 13
4 16 4 7 17
4 20 21 22 23
4 22 24 25 23
4 26 27 28 29
4 30 31 32 33
4 34 35 36 37
4 32 38 39 33
4 38 40 41 39
4 40 42 43 41
4 42 44 45 43
4 36 46 47 37
4 46 48 49 47
4 48 50 51 49
4 50 52 53 51
4 8 54 55 9
4 56 57 58 59
4 1 60 61 2
4 60 62 63 61
4 5 64 65 6
4 64 66 67 65
4 68 69 70 71
4 72 73 74 75
4 76 77 78 79
4 79 78 80 81
4 81 80 82 83
4 83 76 79 81
4 82 84 85 83
4 83 85 86 76
4 76 86 87 77
4 87 88 89 84
4 84 89 90 85
4 85 90 91 86
4 86 91 88 87
4 88 92 93 89
4 89 93 94 90
4 90 94 95 91
4 91 95 92 88
4 92 96 97 93
4 93 97 98 94
4 94 98 99 95
4 95 99 96 92
4 96 100 101 97
4 97 101 102 98
4 98 102 103 99
4 99 103 100 96
4 100 104 105 101
4 101 105 106 102
4 102 106 107 103
4 103 107 104 100
4 104 108 109 105
4 105 109 110 106
4 106 110 111 107
4 107 111 108 104
4 108 112 113 109
4 109 113 114 110
4 110 114 115 111
4 111 115 112 108
4 112 116 117 113
4 113 117 118 114
4 114 118 119 115
4 115 119 116 112
4 116 120 121 117
4 117 121 122 118
4 118 122 123 119
4 119 123 120 116
4 120 124 125 121
4 121 125 126 122
4 122 126 127 123
4 123 127 124 120
4 124 128 129 125
4 125 129 130 126
4 126 130 131 127
4 127 131 128 124
4 128 132 133 129
4 129 133 134 130
4 130 134 135 131
4 131 135 132 128
4 132 136 137 133
4 133 137 138 134
4 134 138 139 135
4 135 139 136 132
4 136 140 141 137
4 137 141 142 138
4 138 142 143 139
4 139 143 140 136
4 140 144 145 141
4 141 145 146 142
4 142 146 147 143
4 143 147 144 140
4 144 148 149 145
4 145 149 150 146
4 146 150 151 147
4 147 151 148 144
4 149 152 153 150
4 150 153 154 151
4 151 154 155 148
4 156 157 158 159
4 159 158 160 161
4 161 160 162 163
4 163 156 159 161
4 164 165 166 167
4 167 166 168 169
4 169 168 170 171
4 171 164 167 169
4 162 172 173 163
4 163 173 174 156
4 156 174 175 157
4 172 176 177 173
4 173 177 178 174
4 174 178 179 175
4 176 180 181 177
4 177 181 182 178
4 178 182 183 179
4 180 184 185 181
4 181 185 186 182
4 182 186 187 183
4 170 188 189 171
4 171 189 190 164
4 164 190 191 165
4 188 192 193 189
4 189 193 194 190
4 190 194 195 191
4 192 196 197 193
4 193 197 198 194
4 194 198 199 195
4 196 200 201 197
4 197 201 202 198
4 198 202 203 199
4 204 205 206 207
4 208 209 205 204
4 210 211 209 208
4 208 204 207 210
4 210 212 213 211
4 207 214 212 210
4 206 215 214 207
4 213 216 217 215
4 212 218 216 213
4 214 219 218 212
4 215 217 219 214
4 216 220 221 217
4 218 222 220 216
4 219 223 222 218
4 217 221 223 219
4 220 224 225 221
4 222 226 224 220
4 223 227 226 222
4 221 225 227 223
4 224 228 229 225
4 226 230 228 224
4 227 231 230 226
4 225 229 231 227
4 228 232 233 229
4 230 234 232 228
4 231 235 234 230
4 229 233 235 231
4 232 236 237 233
4 234 238 236 232
4 235 239 238 234
4 233 237 239 235
4 236 240 241 237
4 238 242 240 236
4 239 243 242 238
4 237 241 243 239
4 240 244 245 241
4 242 246 244 240
4 243 247 246 242
4 241 245 247 243
4 244 248 249 245
4 246 250 248 244
4 247 251 250 246
4 245 249 251 247
4 248 252 253 249
4 250 254 252 248
4 251 255 254 250
4 249 253 255 251
4 252 256 257 253
4 254 258 256 252
4 255 259 258 254
4 253 257 259 255
4 256 260 261 257
4 258 262 260 256
4 259 263 262 258
4 257 261 263 259
4 260 264 265 261
4 262 266 264 260
4 263 267 266 262
4 261 265 267 263
4 264 268 269 265
4 266 270 268 264
4 267 271 270 266
4 265 269 271 267
4 268 272 273 269
4 270 274 272 268
4 271 275 274 270
4 269 273 275 271
4 272 276 277 273
4 274 278 276 272
4 275 279 278 274
4 273 277 279 275
4 278 280 281 276
4 279 282 280 278
4 277 283 282 279
4 284 285 286 287
4 288 289 285 284
4 290 291 289 288
4 288 284 287 290
4 292 293 294 295
4 296 297 293 292
4 298 299 297 296
4 296 292 295 298
4 290 300 301 291
4 287 302 300 290
4 286 303 302 287
4 300 304 305 301
4 302 306 304 300
4 303 307 306 302
4 304 308 309 305
4 306 310 308 304
4 307 311 310 306
4 308 312 313 309
4 310 314 312 308
4 311 315 314 310
4 298 316 317 299
4 295 318 316 298
4 294 319 318 295
4 316 320 321 317
4 318 322 320 316
4 319 323 322 318
4 320 324 325 321
4 322 326 324 320
4 323 327 326 322
4 324 328 329 325
4 326 330 328 324
4 327 331 330 326
4 332 333 334 335
4 336 337 338 339
4 340 341 342 343
4 343 342 333 332
4 343 332 335 340
4 341 334 333 342
4 341 344 345 334
4 335 346 347 340
4 340 347 344 341
4 344 348 349 345
4 345 349 350 346
4 346 350 351 347
4 347 351 348 344
4 348 352 353 349
4 349 353 354 350
4 350 354 355 351
4 351 355 352 348
4 352 356 357 353
4 353 357 358 354
4 354 358 359 355
4 355 359 356 352
4 356 338 337 357
4 357 337 336 358
4 358 336 339 359
4 359 339 338 356
4 360 361 362 363
4 364 365 366 367
4 368 369 370 371
4 363 362 369 368
4 371 360 363 368
4 369 362 361 370
4 361 372 373 370
4 371 374 375 360
4 370 373 374 371
4 372 376 377 373
4 375 378 376 372
4 374 379 378 375
4 373 377 379 374
4 376 380 381 377
4 378 382 380 376
4 379 383 382 378
4 377 381 383 379
4 380 384 385 381
4 382 386 384 380
4 383 387 386 382
4 381 385 387 383
4 384 366 365 385
4 386 367 366 384
4 387 364 367 386
4 385 365 364 387
4 388 389 390 391
4 391 390 392 393
4 393 392 394 395
4 395 394 389 388
4 395 388 391 393
4 392 390 389 394
4 396 397 398 399
4 399 398 400 401
4 401 400 402 403
4 403 402 397 396
4 403 396 399 401
4 400 398 397 402
4 404 405 406 407
4 407 406 408 409
4 409 408 410 411
4 411 410 405 404
4 411 404 407 409
4 408 406 405 410
4 412 413 414 415
4 415 414 416 417
4 417 416 418 419
4 419 418 413 412
4 419 412 415 417
4 416 414 413 418
4 420 421 422 423
4 424 425 421 420
4 426 427 425 424
4 423 422 427 426
4 424 420 423 426
4 427 422 421 425
4 428 429 430 431
4 432 433 429 428
4 434 435 433 432
4 431 430 435 434
4 432 428 431 434
4 435 430 429 433
4 436 437 438 439
4 440 441 437 436
4 442 443 441 440
4 439 438 443 442
4 440 436 439 442
4 443 438 437 441
4 444 445 446 447
4 448 449 445 444
4 450 451 449 448
4 447 446 451 450
4 448 444 447 450
4 451 446 445 449
